Love for All and Sharing is the first step to solving all the problems of humanity.

Website I want to share. 
               
   http://www.scenetime.com
 
 
  Credit to EVERYONE for sharing and seeding back
 especially to SCENETIME.COM where i get all my 
 downloads.


 support www.scenetime.com to grow faster.

                             
                                                            
                                                   

.                 ..................................NFO:....................................[IMG]http://www.leetleech.org/images/54905422586383074631.png[/IMG]
[b]Toy story 3 2010 DVDRiP XViD AC3-LEGi0N

[img]http://leetleech.org/images/48874973695367351744.png[/img]

[color=red]General[/color]
Format: AVI
File size: 1.37 GiB
Duration: 1h 42mn
Overall bit rate : 1 914 Kbps
IMDb Rating: 8.8/10     
Genre:  Animation | Adventure | Comedy | Family | Fantasy
Release: 1 July 2010   
IMDb Link: http://www.imdb.com/title/tt0435761/
Trailer: http://www.imdb.com/video/imdb/vi3676898329/
Source: DVDR
Subs: Hard Coded English When Needed   
Encoded By : HiTM4N

[color=red]Video[/color]
Format: MPEG-4 Visual 
Format profile: Advanced Simple@L5
Format settings, BVOP: Yes
Format settings, QPel: No
Format settings, GMC : No warppoints
Muxing mode: Packed bitstream
Codec ID: XVID
Bit rate: 1 521 Kbps
Width: 720 pixels
Height: 400 pixels
Display aspect ratio: 16:9
Frame rate: 23.976 fps
Chroma subsampling: 4:2:0
Bit depth: 24 bits
Scan type: Progressive
Bits/(Pixel*Frame): 0.220
Stream size: 1.09 GiB 

[color=red]Audio[/color]
Format: AC3
Bit rate mode: Constant
Bit rate: 384 Kbps
Channel(s): 6 channels
Sampling rate: 48.0 KHz
Stream size: 282 MiB

[img]http://leetleech.org/images/89524873606771859129.png[/img]
The toys are mistakenly delivered to a day-care center 
instead of the attic right before Andy leaves for college,
and it's up to Woody to convince the other toys that they 
weren't abandoned and to return home.  

[color=red]Tagline:[/color]
Be The First To Meet Fourteen New Characters. 

[img]http://leetleech.org/images/84434050717770922575.png[/img]
Tom Hanks   ...  Woody (voice)
Tim Allen ... Buzz Lightyear (voice)
Joan Cusack ... Jessie (voice)
Ned Beatty ... Lotso (voice)
Don Rickles ... Mr. Potato Head (voice)
Michael Keaton ... Ken (voice)
Wallace Shawn ... Rex (voice)
John Ratzenberger ... Hamm (voice)
Estelle Harris 	... Mrs. Potato Head (voice) 

[color=red]GREETZ[/color]
Noir | Joshua08 | bigimac | xXTHORNXx | BMB |
kempas | KaN1vE | mike160 | DiLLoN |  
Lungbuster | Sheikh | skillz |
FLAWL3SS | IMAGiNE |  THC | CRYS |
AND ALL AFFILIATED SITES   

[color=red]SAMPLE INCLUDED![/color][/b]

[img]http://leetleech.org/images/95521316153253938506.png[/img]
[img]http://www.leetleech.org/images/94297581524265891805.png[/img]
[img]http://www.leetleech.org/images/09048034071448477549.png[/img]
[img]http://www.leetleech.org/images/96674964767007240278.png[/img]
[img]http://www.leetleech.org/images/26250413589597298987.png[/img]
[img]http://www.leetleech.org/images/03088249637760829590.png[/img]

[img]http://leetleech.org/images/12755021538703799215.png[/img]